<svg width="36" height="36" viewBox="0 0 36 36" fill="none" xmlns="http://www.w3.org/2000/svg">
<ellipse cx="18.1735" cy="17.5958" rx="17.8265" ry="17.4117" fill="#0085FF"/>
<path d="M18.1771 13.6054C15.9175 13.6054 14.0949 15.3856 14.0949 17.5926C14.0949 19.7996 15.9175 21.5797 18.1771 21.5797C20.4366 21.5797 22.2592 19.7996 22.2592 17.5926C22.2592 15.3856 20.4366 13.6054 18.1771 13.6054ZM18.1771 20.1847C16.7169 20.1847 15.5231 19.0223 15.5231 17.5926C15.5231 16.1629 16.7133 15.0004 18.1771 15.0004C19.6408 15.0004 20.831 16.1629 20.831 17.5926C20.831 19.0223 19.6373 20.1847 18.1771 20.1847ZM23.3784 13.4423C23.3784 13.9593 22.952 14.3723 22.4262 14.3723C21.8968 14.3723 21.4741 13.9559 21.4741 13.4423C21.4741 12.9287 21.9004 12.5123 22.4262 12.5123C22.952 12.5123 23.3784 12.9287 23.3784 13.4423ZM26.082 14.3862C26.0216 13.1404 25.7303 12.0369 24.7959 11.1277C23.8651 10.2186 22.7353 9.93401 21.4599 9.87155C20.1453 9.79868 16.2053 9.79868 14.8907 9.87155C13.6188 9.93054 12.4891 10.2151 11.5547 11.1243C10.6203 12.0334 10.3325 13.1369 10.2686 14.3827C10.1939 15.6666 10.1939 19.515 10.2686 20.799C10.329 22.0447 10.6203 23.1482 11.5547 24.0574C12.4891 24.9666 13.6153 25.2511 14.8907 25.3136C16.2053 25.3864 20.1453 25.3864 21.4599 25.3136C22.7353 25.2546 23.8651 24.97 24.7959 24.0574C25.7268 23.1482 26.0181 22.0447 26.082 20.799C26.1566 19.515 26.1566 15.6701 26.082 14.3862ZM24.3838 22.1766C24.1067 22.8567 23.5702 23.3807 22.8703 23.6549C21.8222 24.0609 19.3353 23.9672 18.1771 23.9672C17.0189 23.9672 14.5284 24.0574 13.4838 23.6549C12.7875 23.3842 12.251 22.8602 11.9703 22.1766C11.5547 21.1529 11.6506 18.7238 11.6506 17.5926C11.6506 16.4613 11.5582 14.0288 11.9703 13.0085C12.2475 12.3284 12.7839 11.8044 13.4838 11.5303C14.5319 11.1243 17.0189 11.218 18.1771 11.218C19.3353 11.218 21.8258 11.1277 22.8703 11.5303C23.5667 11.8009 24.1031 12.3249 24.3838 13.0085C24.7995 14.0322 24.7036 16.4613 24.7036 17.5926C24.7036 18.7238 24.7995 21.1564 24.3838 22.1766Z" fill="white"/>
</svg>
