<svg width="36" height="36" viewBox="0 0 36 36" fill="none" xmlns="http://www.w3.org/2000/svg">
<ellipse cx="18.0578" cy="17.5958" rx="17.8265" ry="17.4117" fill="#0085FF"/>
<g clip-path="url(#clip0_6_73)">
<path d="M13.6623 24.2587H10.3625V13.8796H13.6623V24.2587ZM12.0106 12.4637C10.9554 12.4637 10.0996 11.6101 10.0996 10.5795C10.0996 10.0844 10.3009 9.60965 10.6593 9.2596C11.0177 8.90955 11.5038 8.71289 12.0106 8.71289C12.5175 8.71289 13.0035 8.90955 13.3619 9.2596C13.7203 9.60965 13.9217 10.0844 13.9217 10.5795C13.9217 11.6101 13.0654 12.4637 12.0106 12.4637ZM26.0125 24.2587H22.7198V19.2062C22.7198 18.0021 22.6949 16.4578 21.0042 16.4578C19.2885 16.4578 19.0256 17.7661 19.0256 19.1194V24.2587H15.7293V13.8796H18.8942V15.2954H18.9403C19.3809 14.4799 20.457 13.6193 22.0625 13.6193C25.4022 13.6193 26.0161 15.7673 26.0161 18.5573V24.2587H26.0125Z" fill="white"/>
</g>
<defs>
<clipPath id="clip0_6_73">
<rect width="18.1903" height="17.767" fill="white" transform="translate(8.96268 8.7124)"/>
</clipPath>
</defs>
</svg>
