<svg width="36" height="36" viewBox="0 0 36 36" fill="none" xmlns="http://www.w3.org/2000/svg">
<ellipse cx="17.9422" cy="17.5958" rx="17.8265" ry="17.4117" fill="white"/>
<g clip-path="url(#clip0_6_69)">
<path d="M25.1675 13.9771C25.179 14.1349 25.179 14.2928 25.179 14.4506C25.179 19.2643 21.4279 24.8109 14.5719 24.8109C12.4597 24.8109 10.4975 24.2134 8.84702 23.1763C9.14712 23.2101 9.43564 23.2213 9.74729 23.2213C11.4901 23.2213 13.0945 22.6464 14.3757 21.6656C12.7367 21.6318 11.3632 20.5834 10.8899 19.1403C11.1208 19.1741 11.3516 19.1967 11.594 19.1967C11.9287 19.1967 12.2635 19.1516 12.5751 19.0727C10.8669 18.7345 9.58568 17.2689 9.58568 15.499V15.4539C10.082 15.7245 10.6591 15.8936 11.2708 15.9161C10.2666 15.2622 9.60877 14.1462 9.60877 12.8835C9.60877 12.2071 9.79341 11.5871 10.1166 11.046C11.9518 13.2556 14.7104 14.6986 17.8036 14.8564C17.7459 14.5858 17.7113 14.304 17.7113 14.0222C17.7113 12.0155 19.3733 10.3809 21.4394 10.3809C22.5128 10.3809 23.4823 10.8205 24.1633 11.5308C25.0058 11.3729 25.8138 11.0685 26.5294 10.6514C26.2524 11.497 25.6637 12.2072 24.8904 12.6581C25.6407 12.5792 26.3678 12.3762 27.0372 12.0944C26.5295 12.8159 25.8946 13.4585 25.1675 13.9771Z" fill="#0085FF"/>
</g>
<defs>
<clipPath id="clip0_6_69">
<rect width="18.1903" height="17.767" fill="white" transform="translate(8.84702 8.7124)"/>
</clipPath>
</defs>
</svg>
